<svg t="1642387542642" class="icon" viewBox="0 0 1024 1024" version="1.1" xmlns="http://www.w3.org/2000/svg" p-id="33831" width="34" height="34"><path d="M737.172211 653.150316l1.616842-0.161684a38.157474 38.157474 0 0 1 2.694736-0.161685h0.916211a115.173053 115.173053 0 0 0 60.793263-213.099789 294.319158 294.319158 0 0 1-162.492631 221.884631l-6.467369 2.964211 55.296 219.836632 0.862316 3.610947a38.426947 38.426947 0 0 1-74.805895 17.030737l-63.757473-253.682527-0.862316-3.610947a38.426947 38.426947 0 0 1 27.486316-43.654737l-1.185685 0.377263a217.573053 217.573053 0 0 0-65.212631-425.229473 217.573053 217.573053 0 0 0-66.182737 424.798316c19.240421 5.389474 30.935579 24.468211 27.486316 43.708631l-0.808421 3.610947-63.811369 253.682527a38.373053 38.373053 0 0 1-74.752-17.030737l0.808421-3.610947 55.188211-219.621053a294.480842 294.480842 0 0 1-169.229474-224.956632 115.173053 115.173053 0 0 0 60.901053 212.938106h0.646737a38.373053 38.373053 0 0 1 37.995789 45.864421l-0.862316 3.610947-38.211368 152.576a38.426947 38.426947 0 0 1-74.374737-18.539789l0.862316-3.557053 27.216842-108.867368a192.080842 192.080842 0 0 1-14.389895-368.316632 294.373053 294.373053 0 0 1 582.979369 0 192.188632 192.188632 0 0 1-13.473685 368.101053l27.324632 109.082947 0.862316 3.557053a38.426947 38.426947 0 0 1-74.428632 18.539789l-38.157474-152.522105a33.145263 33.145263 0 0 1-0.592842-2.209684l-0.323368-1.455158a38.480842 38.480842 0 0 1-0.754526-7.437474l0.161684 3.125895a38.157474 38.157474 0 0 1-0.10779-2.048v-1.077895a39.019789 39.019789 0 0 1 8.245895-23.821474 37.456842 37.456842 0 0 1 19.078737-12.934737l-4.688842 1.724632a38.157474 38.157474 0 0 1 3.503158-1.401263l1.185684-0.323369a38.965895 38.965895 0 0 1 5.066105-1.185684l0.754527-0.107789z" p-id="33832" fill="#8a8a8a"></path></svg>